<?xml version="1.0" standalone="no"?>
<!DOCTYPE svg PUBLIC "-//W3C//DTD SVG 20010904//EN"
 "http://www.w3.org/TR/2001/REC-SVG-20010904/DTD/svg10.dtd">
<svg version="1.0" xmlns="http://www.w3.org/2000/svg"
 width="360.000000pt" height="360.000000pt" viewBox="0 0 360.000000 360.000000"
 preserveAspectRatio="xMidYMid meet">
<metadata>
Created by potrace 1.16, written by Peter Selinger 2001-2019
</metadata>
<g transform="translate(0.000000,360.000000) scale(0.100000,-0.100000)"
fill="#000000" stroke="none">
<path d="M1400 3156 c-349 -30 -658 -58 -687 -64 -65 -13 -152 -56 -202 -98
-47 -40 -115 -144 -143 -216 -32 -85 -32 -176 1 -578 17 -206 38 -460 47 -565
8 -104 22 -215 31 -245 49 -181 200 -318 383 -350 65 -11 77 -10 881 56 l75 7
45 -54 c68 -83 297 -308 415 -409 162 -140 253 -192 294 -170 68 37 130 283
165 661 9 93 15 175 13 181 -4 10 -48 -54 -221 -318 -58 -88 -124 -164 -143
-164 -9 0 -14 11 -14 35 0 34 96 336 190 595 26 74 76 212 110 306 l62 171
-75 75 c-41 41 -84 93 -96 116 -19 37 -19 44 -6 94 24 92 52 147 86 166 61 34
59 21 43 207 -17 215 -27 265 -65 343 -47 97 -125 174 -226 224 -84 42 -86 42
-206 45 -81 1 -337 -16 -757 -51z m1044 -373 c3 -10 10 -76 16 -148 6 -71 13
-140 15 -152 6 -25 -2 -29 -98 -37 l-59 -5 -26 44 c-15 25 -30 45 -33 45 -3 0
-4 -22 -1 -50 l5 -50 -40 0 -40 0 -7 73 c-3 39 -9 115 -12 168 l-7 96 34 7
c19 3 37 2 43 -4 6 -6 32 -57 57 -113 30 -68 52 -103 64 -106 17 -3 18 4 12
117 -7 129 -7 130 45 131 17 1 29 -5 32 -16z m-356 -182 c90 -179 91 -181 15
-181 -40 0 -42 1 -64 51 -22 47 -25 50 -52 45 -16 -3 -40 -6 -53 -6 -20 0 -26
-8 -39 -54 -15 -52 -17 -54 -57 -60 -23 -4 -44 -3 -48 1 -7 9 84 341 97 354 9
8 65 17 98 15 15 -1 39 -38 103 -165z m-383 125 c38 -16 42 -30 20 -61 -12
-15 -25 -18 -60 -16 -36 2 -49 -2 -69 -22 -66 -67 -29 -170 51 -140 16 6 15 8
-6 13 -32 7 -38 45 -11 60 12 6 42 10 68 8 l47 -3 3 -51 c3 -57 -18 -93 -69
-120 -78 -40 -142 -13 -175 73 -20 53 -13 150 14 197 40 68 114 92 187 62z
m-236 -148 c7 -73 14 -149 17 -169 l5 -36 -53 -6 c-102 -13 -111 -10 -138 34
l-25 41 -3 -46 c-3 -39 -7 -47 -28 -52 -47 -12 -50 -5 -63 164 -7 89 -10 166
-6 171 3 6 21 11 39 11 32 0 34 -3 85 -110 72 -151 86 -150 78 10 l-5 120 42
0 43 0 12 -132z m-370 -64 c46 -91 81 -167 78 -170 -3 -3 -27 -6 -54 -7 -48
-2 -48 -2 -73 45 -26 50 -36 54 -98 42 -28 -6 -33 -13 -47 -60 l-16 -54 -44 0
c-31 0 -45 4 -45 14 0 37 92 332 107 343 9 7 38 13 63 13 l47 0 82 -166z
m-349 121 c0 -28 -4 -36 -23 -40 -24 -6 -24 -7 -19 -134 4 -121 3 -130 -17
-150 -27 -27 -80 -28 -115 0 -29 23 -33 46 -12 75 12 15 17 17 27 7 30 -30 39
-15 39 65 0 106 -6 122 -41 122 -26 0 -29 3 -29 34 0 34 1 35 48 41 26 3 54 8
62 9 8 2 30 4 48 5 30 1 32 -1 32 -34z m1625 -366 c8 -46 -2 -59 -46 -59 -14
0 -28 -2 -30 -5 -3 -2 0 -57 6 -121 l11 -116 -24 -9 c-33 -13 -82 -11 -82 3 0
6 -5 63 -11 125 l-12 113 -37 -6 -37 -6 -7 47 c-4 26 -6 49 -3 51 6 6 144 21
209 23 l56 1 7 -41z m-283 -34 c12 -91 9 -204 -7 -241 -16 -39 -62 -64 -119
-64 -92 0 -124 58 -142 253 l-7 77 37 2 c20 0 41 1 48 2 8 1 16 -29 24 -79 15
-102 21 -115 50 -115 37 0 40 28 21 184 -2 21 30 36 68 33 16 -2 21 -12 27
-52z m-336 -16 c40 -25 54 -47 54 -87 0 -41 -47 -88 -102 -103 l-44 -12 4 -52
4 -52 -41 -10 c-29 -8 -43 -8 -48 0 -9 15 -27 301 -20 321 10 26 149 23 193
-5z m-394 -64 c5 -38 11 -92 16 -120 l7 -50 82 -3 82 -3 7 -35 c3 -19 5 -37 3
-39 -4 -3 -138 -19 -234 -28 -18 -2 -21 8 -32 113 -6 63 -12 143 -12 178 l-1
63 38 -3 37 -3 7 -70z m-171 22 c19 -12 44 -42 57 -67 58 -115 -4 -250 -115
-250 -88 0 -145 62 -151 164 -2 49 1 68 20 100 43 72 125 96 189 53z m-255 -9
c14 -14 14 -18 0 -47 -15 -28 -19 -30 -38 -20 -31 17 -91 -4 -109 -37 -17 -33
-18 -97 0 -118 17 -20 54 -21 70 -2 10 12 8 13 -9 9 -19 -5 -21 -2 -18 28 3
32 6 34 52 42 61 10 79 -4 78 -61 -1 -51 -21 -82 -71 -110 -55 -31 -106 -29
-141 6 -77 77 -57 267 32 319 31 18 134 12 154 -9z m813 -425 c44 -34 64 -70
69 -126 6 -71 -11 -119 -54 -157 -29 -25 -43 -30 -84 -30 -43 0 -55 5 -88 35
-94 84 -76 248 33 296 29 13 95 3 124 -18z m-658 7 c89 -17 132 -79 98 -142
-9 -17 -8 -23 5 -30 81 -45 78 -136 -6 -177 -51 -24 -166 -30 -173 -8 -3 10
-35 318 -35 341 0 6 36 24 51 25 4 1 30 -4 60 -9z m342 -21 c83 -43 100 -108
43 -165 l-34 -34 39 -49 c21 -27 39 -52 39 -55 0 -3 -19 -6 -42 -6 -40 0 -45
4 -73 45 -16 25 -32 45 -35 45 -3 0 -3 -24 -2 -54 l4 -53 -42 -7 c-24 -4 -45
-5 -47 -2 -5 5 -22 223 -23 288 0 36 4 48 18 51 35 9 134 7 155 -4z"/>
<path d="M1070 2078 c-24 -40 -25 -60 -5 -98 16 -30 53 -47 80 -36 8 3 24 20
35 38 37 59 6 128 -57 128 -27 0 -37 -6 -53 -32z"/>
<path d="M1623 1654 c-35 -55 -3 -144 52 -144 52 0 89 84 61 139 -14 27 -22
31 -56 31 -32 0 -43 -5 -57 -26z"/>
</g>
</svg>
