<?xml version="1.0" standalone="no"?>
<!DOCTYPE svg PUBLIC "-//W3C//DTD SVG 20010904//EN"
 "http://www.w3.org/TR/2001/REC-SVG-20010904/DTD/svg10.dtd">
<svg version="1.0" xmlns="http://www.w3.org/2000/svg"
 width="225.000000pt" height="225.000000pt" viewBox="0 0 225.000000 225.000000"
 preserveAspectRatio="xMidYMid meet">
<metadata>
Created by potrace 1.16, written by Peter Selinger 2001-2019
</metadata>
<g transform="translate(0.000000,225.000000) scale(0.100000,-0.100000)"
fill="#000000" stroke="none">
<path d="M923 2236 c-380 -72 -701 -335 -843 -689 -62 -156 -74 -224 -75 -422
0 -166 2 -188 28 -279 58 -209 151 -371 297 -516 218 -219 487 -330 800 -330
515 0 957 346 1091 855 21 80 24 111 23 275 0 157 -4 197 -22 263 -60 219
-148 373 -302 527 -155 154 -312 244 -527 301 -101 27 -362 35 -470 15z m479
-49 c358 -94 645 -361 764 -711 73 -214 73 -489 -1 -705 -124 -367 -440 -642
-825 -721 -145 -30 -349 -24 -492 13 -190 50 -357 146 -498 287 -140 141 -236
306 -288 498 -23 88 -26 114 -26 277 0 163 3 189 26 277 110 407 427 708 839
797 136 30 364 24 501 -12z"/>
<path d="M1003 2153 c-8 -3 -13 -25 -13 -61 0 -81 8 -104 34 -100 17 2 21 10
21 41 0 44 19 44 23 -1 3 -28 7 -32 33 -32 27 0 29 2 23 28 -4 15 -11 35 -15
44 -6 10 -5 19 1 23 15 9 12 31 -6 49 -15 15 -74 21 -101 9z"/>
<path d="M743 2085 c-51 -21 -57 -91 -13 -135 31 -31 73 -26 128 16 2 1 -2 19
-9 38 -14 37 -27 43 -60 26 -22 -12 -25 -30 -5 -30 8 0 17 -7 20 -16 9 -22 8
-24 -10 -24 -16 0 -44 56 -44 90 0 22 19 27 37 9 13 -13 36 -3 28 12 -14 22
-41 27 -72 14z"/>
<path d="M1518 2001 c-28 -51 -34 -71 -25 -80 18 -18 35 -13 51 17 l15 27 1
-41 c0 -40 11 -54 41 -54 5 0 9 27 9 60 0 41 4 60 13 60 21 0 40 17 33 29 -5
7 -20 4 -47 -10 l-40 -20 17 27 c17 25 17 27 -1 40 -10 8 -21 14 -24 14 -3 0
-23 -31 -43 -69z"/>
<path d="M1661 1925 c-36 -42 -39 -63 -10 -99 30 -38 79 -36 113 5 32 38 33
79 3 107 -35 33 -70 28 -106 -13z"/>
<path d="M1780 1815 l-54 -55 44 -45 c29 -29 50 -43 61 -40 19 6 30 -14 23
-42 -3 -10 1 -26 9 -37 12 -17 17 -14 67 49 49 62 52 68 36 83 -15 16 -21 15
-83 -6 l-67 -24 -17 23 c-17 22 -16 24 32 67 47 42 49 45 33 63 -9 11 -20 19
-23 19 -4 0 -31 -25 -61 -55z"/>
<path d="M1073 1808 c3 -24 16 -144 28 -268 l24 -225 27 245 c36 325 39 290
-28 290 l-57 0 6 -42z"/>
<path d="M325 1777 c-3 -7 -1 -26 5 -41 14 -38 13 -39 -12 -22 -16 11 -25 13
-35 4 -23 -19 -14 -34 47 -77 50 -35 63 -41 75 -31 20 16 19 30 -2 46 -16 12
-15 13 13 14 31 0 54 15 54 36 0 6 -22 14 -50 17 -60 7 -70 12 -70 37 0 24
-18 36 -25 17z"/>
<path d="M225 1629 c-5 -15 1 -29 22 -51 l28 -30 -30 7 c-16 4 -35 8 -41 10
-6 2 -16 -7 -23 -21 -10 -23 -7 -26 59 -59 38 -19 72 -35 75 -35 15 0 1 21
-22 35 l-28 15 36 -6 c47 -8 58 10 28 43 l-24 25 28 -13 c24 -11 30 -11 38 2
16 26 9 35 -56 67 -77 38 -82 38 -90 11z"/>
<path d="M1948 1614 c-38 -19 -68 -37 -68 -40 0 -3 5 -14 10 -25 10 -18 12
-18 42 -3 l31 16 -23 -32 c-22 -31 -22 -33 -7 -66 9 -19 23 -34 31 -34 20 0
29 -31 12 -44 -10 -8 -12 -17 -5 -34 10 -26 7 -27 91 30 44 30 55 42 51 58 -5
18 -13 20 -79 20 -41 0 -74 2 -74 5 0 3 12 22 28 43 22 30 32 36 55 34 15 -2
27 1 27 6 0 13 -24 22 -58 22 l-27 1 28 15 c30 16 32 23 15 46 -12 15 -20 13
-80 -18z"/>
<path d="M865 1303 c-17 -4 -165 -171 -165 -186 0 -3 21 0 48 8 26 7 70 17 97
20 l50 7 -48 -31 -48 -31 -242 2 -242 3 0 90 0 90 -107 3 -108 3 0 -30 c0 -16
-3 -36 -6 -45 -4 -11 11 -20 65 -36 69 -20 71 -22 71 -54 0 -32 -2 -33 -66
-51 l-67 -18 7 -70 c3 -38 9 -73 12 -78 3 -5 36 -6 74 -3 l69 7 9 -34 c9 -34
8 -35 -50 -71 -32 -21 -58 -39 -58 -42 0 -2 13 -33 29 -69 l29 -65 69 19 68
19 17 -22 c10 -13 18 -25 18 -28 0 -3 -21 -29 -46 -58 l-46 -52 47 -55 c26
-30 49 -55 51 -55 2 0 28 16 58 35 64 41 67 41 91 15 17 -19 17 -22 -4 -72
-13 -29 -25 -58 -27 -64 -5 -10 96 -84 115 -84 5 0 29 23 54 51 42 48 45 49
71 37 28 -12 28 -13 21 -83 l-6 -72 68 -20 68 -21 30 60 c17 34 33 60 38 59 4
0 18 -1 32 -1 20 0 25 -6 30 -35 3 -19 7 -51 10 -70 l6 -35 73 0 74 0 6 31 c3
17 6 43 6 58 0 35 10 48 42 56 25 6 29 2 60 -58 l33 -65 68 21 68 20 -6 72
c-7 70 -7 71 20 83 26 12 30 10 75 -40 l47 -52 44 26 c87 52 84 45 53 116 -26
60 -26 63 -9 82 24 26 27 26 91 -15 30 -19 56 -35 59 -35 2 0 24 25 49 56 l46
56 -46 53 c-45 53 -45 54 -29 79 20 30 16 30 79 11 76 -23 81 -22 110 46 14
33 26 62 26 64 0 1 -27 20 -60 41 -52 34 -58 42 -53 64 9 40 10 40 87 40 l73
0 7 38 c3 20 6 53 6 73 0 37 0 37 -66 55 l-65 17 3 35 c3 34 5 35 71 55 50 15
66 24 62 34 -3 8 -5 28 -5 44 l0 30 -107 -3 -108 -3 0 -90 0 -90 -242 -3 -242
-2 -46 29 c-42 27 -44 30 -23 35 13 2 -17 4 -67 2 -66 -2 -103 -8 -137 -24
l-48 -21 0 68 0 69 48 20 c62 26 120 35 175 27 41 -6 51 -14 112 -87 38 -46
59 -77 48 -74 -51 15 -103 23 -103 15 0 -5 11 -9 23 -9 13 0 45 -6 70 -14 26
-8 47 -12 47 -10 0 2 -32 43 -71 92 -46 55 -81 89 -98 93 -47 12 -106 9 -161
-7 -69 -20 -121 -20 -190 0 -51 15 -121 19 -165 9z m213 -34 l42 -21 0 -68 0
-69 -47 22 c-62 27 -214 35 -290 14 -29 -8 -53 -12 -53 -10 0 2 27 37 60 76
37 44 71 75 88 79 45 11 154 -1 200 -23z"/>
</g>
</svg>
